<?xml version="1.0" encoding="UTF-8"?>
<svg version="1.1" viewBox="0 0 1600 1600" xmlns="http://www.w3.org/2000/svg">
<g transform="matrix(1.2 0 0 1.2 -159.97 -159.97)" stroke-width="38.706">
<path d="m556.52 1369.3v-410.28l429.63 429.63c-139.34 46.447-294.16 38.706-429.63-19.353z" fill="#7e9aac"/>
<path d="m227.52 1028.7 290.29-290.29v607.68c-135.47-65.799-236.1-178.04-290.29-317.38z" fill="#435b6c"/>
<path d="m231.39 556.52h410.28l-433.5 429.63c-42.576-139.34-34.835-294.16 23.223-429.63z" fill="#7e9aac"/>
<path d="m572 223.65 290.29 290.29h-611.55c69.67-131.6 181.92-232.23 321.25-290.29z" fill="#435b6c"/>
<path d="m1044.2 231.39v410.28l-429.63-433.5c139.34-42.576 294.16-34.835 429.63 23.223z" fill="#7e9aac"/>
<path d="m1373.2 572-290.29 290.29v-611.55c135.47 69.67 236.1 181.92 290.29 321.25z" fill="#435b6c"/>
<path d="m1369.3 1044.2h-410.28l429.63-429.63c46.446 139.34 38.705 290.29-19.353 429.63z" fill="#7e9aac"/>
<path d="m1028.7 1377.1-290.29-290.29h607.67c-65.799 131.6-178.04 232.23-317.38 290.29z" fill="#435b6c"/>
</g>
</svg>
