<?xml version="1.0" encoding="UTF-8"?>
<svg viewBox="0 0 1600 1600" xmlns="http://www.w3.org/2000/svg">
<path d="m1331.5 12.5h6c-1.51 93.342-3.51 186.68-6 280 0.33 7.667 0.67 15.333 1 23 84.83 44.912 169.49 90.079 254 135.5 3.8 2.213 7.13 4.88 10 8-0.32 1.653-1.32 2.653-3 3-95.18 29.126-190.51 57.626-286 85.5-16.97 98.487-34.8 196.82-53.5 295-0.52 1.016-1.35 1.682-2.5 2-2.23-0.719-4.06-2.052-5.5-4-55.46-80.762-111.3-161.26-167.5-241.5-4-0.667-8-0.667-12 0-80.987 11.427-161.99 22.76-243 34-14.919 2.394-29.919 3.894-45 4.5-0.157-1.373 0.01-2.707 0.5-4 58.183-78.52 117.52-156.19 178-233 1.545-1.709 2.378-3.709 2.5-6-43.095-88.524-85.928-177.19-128.5-266-0.495-1.973-0.662-3.973-0.5-6 4.06-0.015 8.06 0.485 12 1.5 89.484 30.939 178.82 62.272 268 94 2.67 0.667 5.33 0.667 8 0 71.17-68.339 142.17-136.84 213-205.5z" fill="#fff"/>
<path d="m242.5 199.5c165-0.333 330 0 495 1 22.461 56.387 44.128 113.05 65 170l-1.5 6c-4.794 8.09-9.961 15.924-15.5 23.5-161.91 0.427-323.74 0.594-485.5 0.5-0.5 299.67-0.667 599.33-0.5 899h1e3c-0.17-95.33 0-190.67 0.5-286 32.53-122.78 65.36-245.45 98.5-368 1.17 237 1.33 474 0.5 711-4.88 25.88-20.38 40.38-46.5 43.5-369.33 0.67-738.67 0.67-1108 0-26.967-3.97-42.134-19.47-45.5-46.5-0.667-370-0.667-740 0-1110 4.68-24.513 19.18-39.179 43.5-44z" fill="#fff"/>
<path d="m442.5 499.5c93.002-0.333 186 0 279 1-51.042 80.915-101.71 162.08-152 243.5 45.014-0.972 90.014-2.638 135-5 96.116-6.36 192.28-11.86 288.5-16.5 4.585-0.069 9.08 0.431 13.5 1.5 65 77.189 129.17 155.02 192.5 233.5 0.67 66.33 0.67 132.67 0 199-4.63 24.96-19.46 39.46-44.5 43.5-237.67 0.67-475.33 0.67-713 0-23.956-4.96-38.122-19.46-42.5-43.5-0.667-204.67-0.667-409.33 0-614 5.134-23.968 19.634-38.301 43.5-43z" fill="#fff" fill-opacity=".65" />
</svg>
