<?xml version="1.0" encoding="UTF-8"?>
<!DOCTYPE svg PUBLIC "-//W3C//DTD SVG 1.1//EN" "http://www.w3.org/Graphics/SVG/1.1/DTD/svg11.dtd">
<!-- Creator: CorelDRAW 2021 (64-Bit) -->
<svg xmlns="http://www.w3.org/2000/svg" xml:space="preserve" width="2.40277in" height="2.76388in" version="1.1" style="shape-rendering:geometricPrecision; text-rendering:geometricPrecision; image-rendering:optimizeQuality; fill-rule:evenodd; clip-rule:evenodd"
viewBox="0 0 6876.92 7910.45"
 xmlns:xlink="http://www.w3.org/1999/xlink"
 xmlns:xodm="http://www.corel.com/coreldraw/odm/2003">
 <defs>
  <style type="text/css">
   <![CDATA[
    .fil5 {fill:#35A1E9}
    .fil2 {fill:#E7E8ED}
    .fil0 {fill:#FD767A}
    .fil3 {fill:#FE819C}
    .fil4 {fill:#FECD56}
    .fil1 {fill:#FEFEFE}
   ]]>
  </style>
 </defs>
 <g id="Layer_x0020_1">
  <metadata id="CorelCorpID_0Corel-Layer"/>
  <g id="_1965299653792">
   <path class="fil0" d="M2393.97 3718.65l-28.98 -30.51c-536.66,25.12 -872.9,539.9 -1108.66,867.6 -225.97,314.07 -527.91,812.15 -702.6,1220.34 138.06,120.42 549.61,323.12 744.59,439.8 245.12,146.71 484.06,287.41 728.41,422.46 1744.99,964.35 1153.07,980.5 2275.16,328.1l1488.3 -857.11c127.88,-75.56 237.58,-139.87 378.61,-218.61 154.95,-86.5 289.32,-129.35 309.79,-246.08l-1.04 -1886.82c-793.04,-542.57 -1456.03,-126.75 -1912.48,607.57 -236.02,379.7 -838.72,1715.95 -1533.58,712.86 -196.39,-283.51 -510.05,-1013.29 -637.53,-1359.6z"/>
   <path class="fil1" d="M476.3 3864.14c165.37,-453.52 357.88,-1028.46 835.22,-1090.88 332.74,-43.53 554.49,113.93 678.92,284.06 116.12,158.77 285.01,408.48 374.55,630.82l28.98 30.51 182.43 69.3c101.23,-409.02 497.03,-1064.05 1004.87,-732.37 299.63,195.7 520.2,779.42 701.1,1194.79 182.07,-104.16 297.62,-373.21 418.4,-621.31 129.83,-266.67 224.37,-480.75 454.37,-622.37 616.02,-379.33 1074.62,306.68 1288.09,594.23 85.25,-117.76 36.19,-475.03 36.25,-659.36 0.08,-241.06 1.45,-482.16 -1.28,-723.2 -500.73,-269.52 -1001.56,-586.6 -1509.89,-865.84 -197.18,-108.31 -1422.54,-850.86 -1512.01,-852.17 -114.78,-1.68 -2632.84,1529.04 -3023.47,1706.52l43.47 1657.26z"/>
   <path class="fil2" d="M6477.56 3757.82l1.04 1886.82c-20.47,116.74 -154.85,159.58 -309.79,246.08 -141.03,78.74 -250.72,143.05 -378.61,218.61l-1488.3 857.11c-1122.09,652.4 -530.17,636.25 -2275.16,-328.1 -244.35,-135.05 -483.29,-275.75 -728.41,-422.46 -194.98,-116.68 -606.54,-319.38 -744.59,-439.8l-120.38 -46.44c0.99,-390 -48.11,-1575.48 42.94,-1865.5l-43.47 -1657.26c390.63,-177.48 2908.69,-1708.2 3023.47,-1706.52 89.47,1.31 1314.83,743.86 1512.01,852.17 508.33,279.23 1009.16,596.32 1509.89,865.84 2.74,241.05 1.36,482.15 1.28,723.2 -0.06,184.33 49,541.6 -36.25,659.36l34.32 156.88zm-6477.56 -1690.77l0 3816.1c0,121.58 157.92,163.51 385.25,290.51 484.87,270.87 2990.55,1736.79 3073.08,1736.79l3013.44 -1716.93c111.67,-67.09 405.14,-180.23 405.14,-310.37l0 -3816.1c0,-147.96 -594.64,-437.91 -797.08,-554.45 -297.05,-171.04 -578.78,-337.29 -886.11,-505.18l-1735.4 -1007.42c-149.82,79.27 -288.33,154.76 -435.61,240.16 -67.3,39.03 -119.5,81.13 -194.57,123.44 -96.36,54.31 -127.44,63.59 -228.54,129.23 -290.4,188.57 -586.6,330.58 -882.69,508.58l-1537.02 887.8c-101.04,58.35 -179.92,60.57 -179.92,177.84z"/>
   <path class="fil3" d="M476.3 3864.14c-91.06,290.02 -41.95,1475.5 -42.94,1865.5l120.38 46.44c174.69,-408.18 476.63,-906.26 702.6,-1220.34 235.76,-327.71 572,-842.49 1108.66,-867.6 -89.54,-222.34 -258.43,-472.05 -374.55,-630.82 -124.43,-170.12 -346.18,-327.58 -678.92,-284.06 -477.34,62.42 -669.85,637.36 -835.22,1090.88z"/>
   <path class="fil4" d="M4282.37 4250.38c-173.02,282.25 -667.61,272.69 -999.86,100.76 -164.14,-84.94 -243.57,-155.5 -364.15,-272.42 -101.2,-98.12 -223.4,-179.71 -341.96,-290.77l-182.43 -69.3c127.49,346.31 441.14,1076.09 637.53,1359.6 694.85,1003.09 1297.56,-333.16 1533.58,-712.86 456.45,-734.33 1119.43,-1150.14 1912.48,-607.57l-34.32 -156.88c-213.47,-287.55 -672.07,-973.56 -1288.09,-594.23 -230,141.62 -324.54,355.7 -454.37,622.37 -120.78,248.1 -236.34,517.15 -418.4,621.31z"/>
   <path class="fil5" d="M2576.4 3787.95c118.56,111.06 240.76,192.65 341.96,290.77 120.58,116.92 200.01,187.48 364.15,272.42 332.25,171.93 826.84,181.49 999.86,-100.76 -180.9,-415.37 -401.47,-999.09 -701.1,-1194.79 -507.84,-331.69 -903.64,323.35 -1004.87,732.37z"/>
  </g>
 </g>
</svg>
