<?xml version="1.0" encoding="UTF-8"?>
<svg version="1.1" viewBox="0 0 16 16" xml:space="preserve" xmlns="http://www.w3.org/2000/svg"><path d="m9.0371 13-0.49609-0.8457-1.4258-0.01953 0.00195-2.2461-0.92773 1.4844 1.2715 2.4453h0.93945c0.070968-0.19993 0.18413-0.38727 0.3418-0.54492l0.16211-0.16016c0.042003-0.041998 0.087258-0.079324 0.13281-0.11328z" fill="#435b6c" fill-opacity=".36078"/><path d="m7.9512 2.1758-6.6543 11.643h5.5781l-0.88086-1.7617h-1.6641l2.7871-4.6953 0.67969-1.1406 0.25195-0.42578 0.44727 0.82812 0.20117 0.18555s0.28367 0.27275 0.44922 0.42773c0.43109-0.2467 0.8885-0.45294 1.377-0.57227z" fill="#445c6d"/><path d="m15.352 11.783c0.0037 1.9501-1.5868 3.5448-3.5369 3.5462-0.84227 5.99e-4 -1.6159-0.293-2.2239-0.78369-0.15809-0.12759-0.16991-0.36452-0.026234-0.50819l0.16081-0.1608c0.12287-0.12287 0.31902-0.13631 0.45515-0.02831 0.44793 0.35545 1.0148 0.5676 1.6316 0.5676 1.4515 0 2.6261-1.1747 2.6261-2.6261 0-1.4515-1.1747-2.6261-2.6261-2.6261-0.69668 0-1.3294 0.27073-1.7993 0.71264 0.3758 0.38087 1.0097 1.0883 1.0097 1.0883l-2.7444-0.03718 0.00176-2.7307s0.7336 0.68013 1.0872 1.0338c0.63543-0.60726 1.4967-0.98028 2.445-0.98028 1.9526 0 3.5359 1.5811 3.5395 3.5328z" fill="#0d1215"/></svg>
