<?xml version="1.0" encoding="UTF-8" standalone="no"?>
<svg
        viewBox="0 0 16 16"
        version="1.1"
        id="svg4"
        xmlns="http://www.w3.org/2000/svg"
>
  <path
     d="m 11.152979,2.8848334 c 1.713323,1.0583374 2.855029,2.9534216 2.855029,5.1151658 0,3.3181308 -2.689877,6.0080078 -6.0080089,6.0080078 -0.723588,0 -1.4172988,-0.127917 -2.0595625,-0.362565 l -0.068616,-0.02555 0.1117332,-0.03588 0.1436273,-0.04711 0.070862,-0.02366 v 0 l 0.070227,-0.02374 0.1385529,-0.04773 0.1360153,-0.04804 0.1334804,-0.04836 0.1309441,-0.04867 0.064521,-0.02447 0.1271421,-0.04917 c 0.1342668,-0.05262 0.264208,-0.105792 0.3898283,-0.159543 l 0.093405,-0.04042 0.1144773,-0.05083 c 0.050315,-0.02266 0.099883,-0.04544 0.1486987,-0.06831 l 0.072663,-0.03439 0.1068847,-0.05187 0.052492,-0.02606 v 0 l 0.05186,-0.02615 0.101827,-0.05257 c 0.854781,-0.448384 1.435551,-0.935471 1.74389,-1.46953 0.6532991,-1.131545 0.08274,-2.3407639 -1.555171,-3.5735317 l -0.133291,-0.099934 -0.08097,-0.062095 -0.07861,-0.061622 -0.076263,-0.061152 -0.073922,-0.06068 -0.036089,-0.030168 v 0 l -0.035506,-0.030051 -0.069265,-0.059753 -0.050431,-0.04451 v 0 l -0.049127,-0.044254 -0.06349,-0.058602 -0.061194,-0.058149 -0.058902,-0.057694 -0.028599,-0.028678 v 0 L 7.3960959,6.8839526 7.3417476,6.8271592 C 6.694279,6.1388695 6.5496969,5.5496495 6.843641,5.0405234 6.9932498,4.7813934 7.2526243,4.5266307 7.6213121,4.2785138 l 0.044768,-0.029739 0.070497,-0.045362 c 0.031878,-0.020128 0.064481,-0.040208 0.097813,-0.060244 l 0.050543,-0.030015 0.077856,-0.04489 0.080308,-0.044726 0.06184,-0.033435 v 0 l 0.06322,-0.033338 0.08643,-0.044302 c 0.06574,-0.033161 0.133555,-0.066177 0.203433,-0.099037 l 0.07057,-0.032809 0.09623,-0.043585 0.04903,-0.021721 0.0999,-0.043303 0.05087,-0.021582 0.103568,-0.043016 0.0527,-0.021434 0.107236,-0.042715 0.05453,-0.021282 0.110902,-0.042414 0.113345,-0.042206 0.05759,-0.021024 0.117009,-0.041893 0.119451,-0.04168 0.121893,-0.041459 0.06186,-0.02065 0.125553,-0.041127 0.1279929,-0.040907 0.130432,-0.040674 0.132869,-0.040447 0.135308,-0.040215 0.17256,-0.049928 0.176369,-0.049549 0.216665,-0.058957 z M 7.9999993,1.991993 c 0.7306307,0 1.4308007,0.1304194 2.0784997,0.3692474 l 0.06919,0.026 -0.04387,0.013282 -0.213993,0.065963 -0.07007,0.022157 -0.138251,0.044572 -0.13573,0.044922 -0.133211,0.045271 -0.130692,0.045626 -0.128174,0.045982 -0.06314,0.023126 -0.155103,0.058209 -0.151173,0.058785 -0.118107,0.04744 -0.05811,0.023862 -0.114335,0.047998 C 7.325257,3.4723862 6.5594686,4.030721 6.1932681,4.664999 5.5541154,5.7720437 6.1338389,6.9654496 7.7719058,8.197887 l 0.1332843,0.099941 0.080941,0.062135 0.07857,0.061688 0.0384,0.030677 0.07503,0.061028 0.05473,0.04548 v 0 l 0.0534,0.045234 0.06916,0.059932 0.03371,0.029806 0.06566,0.059289 c 0.03583,0.032816 0.07059,0.065438 0.104283,0.097861 l 0.04973,0.048489 0.0716,0.072185 0.06802,0.071531 c 0.644701,0.6930771 0.782499,1.294079 0.476142,1.824704 -0.198234,0.34335 -0.576706,0.68135 -1.134551,1.00947 l -0.05121,0.0298 -0.082996,0.04702 -0.085466,0.04688 c -0.04817,0.026 -0.097479,0.05194 -0.1479331,0.0778 l -0.076538,0.03875 -0.094109,0.04635 -0.096577,0.04619 -0.099044,0.04604 -0.05045,0.02296 -0.1027445,0.04581 -0.1052104,0.04564 -0.1076756,0.04547 -0.054764,0.02267 -0.1113728,0.04521 -0.05661,0.02255 v 0 l -0.057228,0.02249 -0.1163,0.04486 -0.1187634,0.04468 -0.1212249,0.0445 -0.123687,0.04431 -0.1261486,0.04412 -0.063997,0.02199 -0.1298382,0.04382 -0.065841,0.02184 -0.1335283,0.04352 -0.1359866,0.04333 -0.1734406,0.05387 -0.1772805,0.05353 -0.1445884,0.04259 -0.2017903,0.05803 C 3.1473335,12.079386 1.991992,10.174615 1.991992,8.0000003 c 0,-3.3181296 2.6898761,-6.0080063 6.0080065,-6.0080063 z"
     fill="#0080ff"
     id="path1-1"
     style="fill:#425c6c;fill-opacity:0.74117649;stroke-width:0.0938753" />
  <circle
     style="fill:none;fill-opacity:1;stroke:#455d6e;stroke-width:0.871443;"
     id="path1"
     cx="8"
     cy="8"
     r="6.0910068" />
</svg>
