<?xml version="1.0" encoding="UTF-8" standalone="no"?>
<svg
   viewBox="0 0 16 16"
   version="1.1"
   id="svg4"
   xmlns="http://www.w3.org/2000/svg">
  <path
     d="m 11.152979,2.884833 c 1.713323,1.058338 2.855029,2.953422 2.855029,5.115166 0,3.318131 -2.689877,6.008008 -6.0080088,6.008008 -0.723588,0 -1.4172988,-0.127917 -2.0595625,-0.362565 l -0.068616,-0.02555 0.1117332,-0.03588 0.1436273,-0.04711 0.070862,-0.02366 v 0 l 0.070227,-0.02374 0.1385529,-0.04773 0.1360153,-0.04804 0.1334804,-0.04836 0.1309441,-0.04867 0.064521,-0.02447 0.1271421,-0.04917 c 0.1342668,-0.05262 0.264208,-0.105792 0.3898283,-0.159543 l 0.093405,-0.04042 0.1144773,-0.05083 c 0.050315,-0.02266 0.099883,-0.04544 0.1486987,-0.06831 l 0.072663,-0.03439 0.1068847,-0.05187 0.052492,-0.02606 v 0 l 0.05186,-0.02615 0.101827,-0.05257 c 0.854781,-0.448384 1.435551,-0.935471 1.74389,-1.46953 0.653299,-1.131545 0.08274,-2.340764 -1.555171,-3.573532 L 8.18649,7.569927 8.10552,7.507827 8.02691,7.446207 7.950647,7.385057 7.876725,7.324377 7.840636,7.294207 v 0 L 7.80513,7.264157 7.735865,7.204407 7.685434,7.159897 v 0 L 7.636307,7.115647 7.572817,7.057047 7.511623,6.998897 7.452721,6.941207 7.424122,6.912527 v 0 L 7.396096,6.883967 7.341748,6.827177 C 6.6942794,6.138887 6.5496973,5.549668 6.8436414,5.040541 6.9932502,4.781411 7.2526247,4.526649 7.6213125,4.278532 l 0.044768,-0.02974 0.070497,-0.04536 c 0.031878,-0.02013 0.064481,-0.04021 0.097813,-0.06024 l 0.050543,-0.03001 0.077856,-0.04489 0.080308,-0.04473 0.06184,-0.03344 v 0 l 0.06322,-0.03334 0.08643,-0.0443 c 0.06574,-0.03316 0.133555,-0.06618 0.203433,-0.09904 l 0.07057,-0.03281 0.09623,-0.04359 0.04903,-0.02172 0.0999,-0.0433 0.05087,-0.02158 0.103568,-0.04302 0.0527,-0.02143 0.107236,-0.04272 0.05453,-0.02128 0.110902,-0.04241 0.113345,-0.04221 0.05759,-0.02102 0.117009,-0.04189 0.119451,-0.04168 0.121893,-0.04146 0.06186,-0.02065 0.125553,-0.04113 0.1279925,-0.04091 0.130432,-0.04067 0.132869,-0.04045 0.135308,-0.04022 0.17256,-0.04993 0.176369,-0.04955 0.216665,-0.05896 z M 7.9999994,1.991993 c 0.7306307,0 1.4308007,0.130419 2.0784996,0.369247 l 0.06919,0.026 -0.04387,0.01328 -0.2139929,0.06596 -0.07007,0.02216 -0.138251,0.04457 -0.13573,0.04492 -0.133211,0.04527 -0.130692,0.04563 -0.128174,0.04598 -0.06314,0.02313 -0.155103,0.05821 -0.151173,0.05879 -0.118107,0.04744 -0.05811,0.02386 -0.114335,0.048 C 7.3252571,3.472391 6.5594687,4.030726 6.1932682,4.665004 5.5541155,5.772049 6.1338392,6.965455 7.7719059,8.197892 l 0.1332843,0.09994 0.080941,0.06213 0.07857,0.06169 0.0384,0.03068 0.07503,0.06103 0.05473,0.04548 v 0 l 0.0534,0.04523 0.06916,0.05993 0.03371,0.02981 0.06566,0.05929 c 0.03583,0.03282 0.07059,0.06544 0.104283,0.09786 l 0.04973,0.04849 0.0716,0.07218 0.06802,0.07153 c 0.644701,0.693077 0.782499,1.294079 0.476142,1.824704 -0.198234,0.34335 -0.576706,0.68135 -1.134551,1.00947 l -0.05121,0.0298 -0.082996,0.04702 -0.085466,0.04688 c -0.04817,0.026 -0.097479,0.05194 -0.1479331,0.0778 l -0.076538,0.03875 -0.094109,0.04635 -0.096577,0.04619 -0.099044,0.04604 -0.05045,0.02296 -0.1027445,0.04581 -0.1052104,0.04564 -0.1076756,0.04547 -0.054764,0.02267 -0.1113728,0.04521 -0.05661,0.02255 v 0 l -0.057228,0.02249 -0.1163,0.04486 -0.1187634,0.04468 -0.1212249,0.0445 -0.123687,0.04431 -0.1261486,0.04412 -0.063997,0.02199 -0.1298382,0.04382 -0.065841,0.02184 -0.1335283,0.04352 -0.1359866,0.04333 -0.1734406,0.05387 -0.1772805,0.05353 -0.1445884,0.04259 -0.2017903,0.05803 C 3.1473336,12.079385 1.9919921,10.174614 1.9919921,7.999999 c 0,-3.318129 2.6898761,-6.008006 6.0080073,-6.008006 z"
     fill="#0080ff"
     id="path1-1-9"
     style="fill:#b1b1b1;fill-opacity:0.741176;stroke-width:0.0938753" />
  <circle
     style="fill:none;stroke:#808080;stroke-width:0.871443;"
     id="path1"
     cx="8"
     cy="8"
     r="6.0910068" />
</svg>
