<?xml version="1.0" encoding="UTF-8" standalone="no"?>
<svg
   viewBox="0 0 16 16"
   version="1.1"
   id="svg4"
   xmlns="http://www.w3.org/2000/svg">
  <path
     d="m 11.152985,2.884833 c 1.713323,1.058338 2.855029,2.953422 2.855029,5.115166 0,3.318131 -2.689877,6.008008 -6.0080095,6.008008 -0.723588,0 -1.417299,-0.127917 -2.059562,-0.362565 l -0.06862,-0.02555 0.111733,-0.03588 0.143627,-0.04711 0.07086,-0.02366 v 0 l 0.07023,-0.02374 0.138553,-0.04773 0.136015,-0.04804 0.133481,-0.04836 0.130944,-0.04867 0.06452,-0.02447 0.127142,-0.04917 c 0.134267,-0.05262 0.264208,-0.105792 0.389828,-0.159543 l 0.09341,-0.04042 0.114478,-0.05083 c 0.05031,-0.02266 0.09988,-0.04544 0.148698,-0.06831 l 0.07266,-0.03439 0.106885,-0.05187 0.05249,-0.02606 v 0 l 0.05186,-0.02615 0.101827,-0.05257 c 0.854781,-0.448384 1.435551,-0.935471 1.74389,-1.46953 0.6532995,-1.131545 0.08274,-2.340764 -1.555171,-3.573532 l -0.133291,-0.09993 -0.08097,-0.0621 -0.07861,-0.06162 -0.07626,-0.06115 -0.07392,-0.06068 -0.03609,-0.03017 v 0 l -0.03551,-0.03005 -0.06926,-0.05975 -0.05043,-0.04451 v 0 l -0.04913,-0.04425 -0.06349,-0.0586 -0.06119,-0.05815 -0.0589,-0.05769 -0.0286,-0.02868 v 0 l -0.02803,-0.02856 -0.05435,-0.05679 C 6.6942825,6.138887 6.5497005,5.549668 6.8436445,5.040541 6.9932535,4.781411 7.2526275,4.526649 7.6213155,4.278532 l 0.04477,-0.02974 0.0705,-0.04536 c 0.03188,-0.02013 0.06448,-0.04021 0.09781,-0.06024 l 0.05054,-0.03001 0.07786,-0.04489 0.08031,-0.04473 0.06184,-0.03344 v 0 l 0.06322,-0.03334 0.08643,-0.0443 c 0.06574,-0.03316 0.133555,-0.06618 0.203433,-0.09904 l 0.07057,-0.03281 0.09623,-0.04359 0.04903,-0.02172 0.0999,-0.0433 0.05087,-0.02158 0.103568,-0.04302 0.0527,-0.02143 0.107236,-0.04272 0.05453,-0.02128 0.110902,-0.04241 0.113345,-0.04221 0.05759,-0.02102 0.117009,-0.04189 0.119451,-0.04168 0.121893,-0.04146 0.06186,-0.02065 0.125553,-0.04113 0.1279935,-0.04091 0.130432,-0.04067 0.132869,-0.04045 0.135308,-0.04022 0.17256,-0.04993 0.176369,-0.04955 0.216665,-0.05896 z M 8.0000045,1.991993 c 0.730631,0 1.430801,0.130419 2.0785005,0.369247 l 0.06919,0.026 -0.04387,0.01328 -0.2139935,0.06596 -0.07007,0.02216 -0.138251,0.04457 -0.13573,0.04492 -0.133211,0.04527 -0.130692,0.04563 -0.128174,0.04598 -0.06314,0.02313 -0.155103,0.05821 -0.151173,0.05879 -0.118107,0.04744 -0.05811,0.02386 -0.114335,0.048 c -1.168473,0.497951 -1.934261,1.056286 -2.300462,1.690564 -0.639153,1.107045 -0.05943,2.300451 1.578638,3.532888 l 0.133284,0.09994 0.08094,0.06213 0.07857,0.06169 0.0384,0.03068 0.07503,0.06103 0.05473,0.04548 v 0 l 0.0534,0.04523 0.06916,0.05993 0.03371,0.02981 0.06566,0.05929 c 0.03583,0.03282 0.07059,0.06544 0.104283,0.09786 l 0.04973,0.04849 0.0716,0.07219 0.06802,0.07153 c 0.644701,0.693077 0.782499,1.294079 0.476142,1.824704 -0.198234,0.34335 -0.576706,0.68135 -1.134551,1.00947 l -0.05121,0.0298 -0.083,0.04702 -0.08547,0.04688 c -0.04817,0.026 -0.09748,0.05194 -0.147933,0.0778 l -0.07654,0.03875 -0.09411,0.04635 -0.09658,0.04619 -0.09904,0.04604 -0.05045,0.02296 -0.102744,0.04581 -0.105211,0.04564 -0.107676,0.04547 -0.05476,0.02267 -0.111372,0.04521 -0.05661,0.02255 v 0 l -0.05723,0.02249 -0.1163,0.04486 -0.118764,0.04468 -0.121225,0.0445 -0.123687,0.04431 -0.126148,0.04412 -0.064,0.02199 -0.129838,0.04382 -0.06584,0.02184 -0.133529,0.04352 -0.135986,0.04333 -0.173441,0.05387 -0.17728,0.05353 -0.144589,0.04259 -0.20179,0.05803 c -1.730338,-1.054571 -2.88568,-2.959342 -2.88568,-5.133957 0,-3.318129 2.689876,-6.008006 6.008006,-6.008006 z"
     fill="#0080ff"
     id="path1-1-4"
     style="fill:#ededed;stroke-width:0.0938753" />
  <circle
     style="fill:none;stroke:#ffffff;stroke-width:0.871443;"
     id="path1"
     cx="8"
     cy="8"
     r="6.0910068" />
</svg>
