<?xml version="1.0" encoding="UTF-8"?>
<svg version="1.1" viewBox="0 0 16 16" xmlns="http://www.w3.org/2000/svg">
<path d="m4.5 5c-0.28 0-0.5 0.22-0.5 0.5v6c0 0.27614 0.22386 0.5 0.5 0.5h0.17578v-1.873h0.75781c0.43922 0 0.65826-0.10307 0.80273-0.26758v-0.0019531c0.1615-0.18741 0.26562-0.46179 0.26562-0.90625v-0.33984c0-0.69155 0.22569-1.3175 0.69531-1.7363 0.45333-0.40407 1.0557-0.60352 1.7129-0.60352h0.70508 1.959 0.42578v-0.77148c0-0.28-0.22-0.5-0.5-0.5h-7z" fill="#445c6d" fill-opacity=".36078"/>
<path d="m2.5 2c-0.28 0-0.5 0.22-0.5 0.5v11c0 0.27614 0.22386 0.5 0.5 0.5h4.002v-0.56641c0-0.16787-0.014124-0.31017-0.041016-0.43359h-3.4609v-9h10v2.3613c0.37207 0.094803 0.70909 0.26453 0.98828 0.51562 0.004131 0.0036683 0.007626 0.0080187 0.011719 0.011719v-4.3887c0-0.28-0.22-0.5-0.5-0.5h-11z" fill="#435b6c"/>
<path d="m9.7932 15.126h-0.57793q-0.68966 0-1.1212-0.38529-0.42767-0.38143-0.42767-1.1058v-0.57408q0-0.65113-0.31979-1.0172-0.31979-0.36988-0.97863-0.36988h-0.1965v-0.60105h0.1965q0.65884 0 0.97863-0.36602 0.31979-0.36988 0.31979-1.021v-0.57408q0-0.72434 0.42767-1.1058 0.43152-0.38529 1.1212-0.38529h0.57793v0.5317h-0.43923q-0.52399 0-0.76287 0.24273-0.23502 0.24273-0.23502 0.78213v0.67425q0 0.53555-0.29667 0.90157-0.29667 0.36217-0.82451 0.57408v0.09247q0.52784 0.21191 0.82451 0.57793 0.29667 0.36217 0.29667 0.89772v0.67425q0 0.5394 0.23502 0.78213 0.23888 0.24273 0.76287 0.24273h0.43923zm5.2254-3.4522h-0.1965q-0.65884 0-0.97863 0.36988-0.31979 0.36602-0.31979 1.0172v0.57408q0 0.72434-0.43152 1.1058-0.42767 0.38529-1.1173 0.38529h-0.57793v-0.5317h0.43923q0.52399 0 0.75902-0.24273 0.23888-0.24273 0.23888-0.78213v-0.67425q0-0.53555 0.29667-0.89772 0.29667-0.36602 0.82451-0.57793v-0.09247q-0.52784-0.21191-0.82451-0.57408-0.29667-0.36602-0.29667-0.90157v-0.67425q0-0.5394-0.23888-0.78213-0.23502-0.24273-0.75902-0.24273h-0.43923v-0.5317h0.57793q0.68966 0 1.1173 0.38529 0.43152 0.38143 0.43152 1.1058v0.57408q0 0.65113 0.31979 1.021 0.31979 0.36602 0.97863 0.36602h0.1965z" fill="#7e9aac" stroke="#7e9aac" stroke-width=".84775" aria-label="{}"/>
</svg>
