<?xml version="1.0" encoding="UTF-8"?>
<svg id="Layer_2" data-name="Layer 2" xmlns="http://www.w3.org/2000/svg" viewBox="0 0 395.17 155.89">
  <defs>
    <style>
      .cls-1 {
        fill: #d10032;
      }
    </style>
  </defs>
  <g id="Layer_1-2" data-name="Layer 1">
    <path class="cls-1" d="M341.5,125.6h-92.37l-23.3-36.87-18.34,26.88,18,29.04c4.85,7.04,12.83,11.24,21.35,11.24h114.76l-20.1-30.29Zm48.45-16.26l-63.87-93.3c-6.9-10.05-18.28-16.04-30.46-16.04h-44.25c-12.29,0-23.76,6.1-30.63,16.29l-74.23,109.31H.06c-.06,.37-.06,.77-.06,1.14,0,5.14,1.36,10.3,4.12,14.9,5.25,8.83,14.79,14.25,25.06,14.25h119.59c8.57,0,16.61-4.23,21.43-11.33L247.86,30.29h51.26l81.66,121.32c3.32-2.02,6.27-4.66,8.6-7.86,7.49-10.19,7.72-23.99,.57-34.4ZM96.59,30.29h54.36l19.61,31.82,19.19-26.57-11.1-18C171.93,6.64,160.04,0,147.23,0h-47.2c-12.18,0-23.56,6.02-30.46,16.07L7.18,107.24H43.86L96.59,30.29Z"/>
  </g>
</svg>