<?xml version="1.0" encoding="UTF-8" standalone="no"?>
<!DOCTYPE svg PUBLIC "-//W3C//DTD SVG 1.1//EN" "http://www.w3.org/Graphics/SVG/1.1/DTD/svg11.dtd">
<svg width="100%" height="100%" viewBox="0 0 31 32" version="1.1" xmlns="http://www.w3.org/2000/svg" xmlns:xlink="http://www.w3.org/1999/xlink" xml:space="preserve" xmlns:serif="http://www.serif.com/" style="fill-rule:evenodd;clip-rule:evenodd;stroke-linejoin:round;stroke-miterlimit:2;">
    <path d="M16.35,7.486C18.417,7.486 20.093,5.81 20.093,3.743C20.093,1.676 18.417,0 16.35,0C14.283,0 12.607,1.676 12.607,3.743C12.607,5.81 14.283,7.486 16.35,7.486Z" style="fill:white;fill-rule:nonzero;"/>
    <path d="M16.206,32C17.447,32 18.452,30.995 18.452,29.755C18.452,28.514 17.447,27.509 16.206,27.509C14.966,27.509 13.961,28.514 13.961,29.755C13.961,30.995 14.966,32 16.206,32Z" style="fill:white;fill-rule:nonzero;"/>
    <path d="M6.531,11.192C8.392,11.192 9.9,9.684 9.9,7.823C9.9,5.963 8.392,4.455 6.531,4.455C4.671,4.455 3.162,5.963 3.162,7.823C3.162,9.684 4.671,11.192 6.531,11.192Z" style="fill:white;fill-rule:nonzero;"/>
    <path d="M24.998,28.015C26.031,28.015 26.869,27.177 26.869,26.144C26.869,25.11 26.031,24.272 24.998,24.272C23.964,24.272 23.126,25.11 23.126,26.144C23.126,27.177 23.964,28.015 24.998,28.015Z" style="fill:white;fill-rule:nonzero;"/>
    <path d="M2.994,20.592C4.647,20.592 5.987,19.252 5.987,17.598C5.987,15.945 4.647,14.605 2.994,14.605C1.34,14.605 0,15.945 0,17.598C0,19.252 1.34,20.592 2.994,20.592Z" style="fill:white;fill-rule:nonzero;"/>
    <path d="M29.006,19.131C29.833,19.131 30.503,18.461 30.503,17.635C30.503,16.808 29.833,16.139 29.006,16.139C28.18,16.139 27.51,16.808 27.51,17.635C27.51,18.461 28.18,19.131 29.006,19.131Z" style="fill:white;fill-rule:nonzero;"/>
    <path d="M5.42,24.562C4.396,25.586 4.396,27.243 5.42,28.266C6.442,29.29 8.101,29.29 9.124,28.266C10.148,27.243 10.148,25.586 9.124,24.562C8.101,23.537 6.444,23.528 5.42,24.562Z" style="fill:white;fill-rule:nonzero;"/>
    <path d="M25.668,9.145C26.288,9.145 26.791,8.643 26.791,8.023C26.791,7.403 26.288,6.901 25.668,6.901C25.049,6.901 24.546,7.403 24.546,8.023C24.546,8.643 25.049,9.145 25.668,9.145Z" style="fill:white;fill-rule:nonzero;"/>
    <path d="M15.978,9.378C16.082,9.178 16.367,9.178 16.471,9.378L18.107,12.518C18.17,12.638 18.309,12.695 18.438,12.655L21.815,11.591C22.029,11.524 22.231,11.726 22.164,11.94L21.1,15.317C21.06,15.446 21.117,15.585 21.237,15.648L24.377,17.284C24.577,17.388 24.577,17.673 24.377,17.777L21.237,19.413C21.117,19.476 21.06,19.615 21.1,19.744L22.164,23.121C22.231,23.335 22.029,23.537 21.815,23.47L18.438,22.406C18.309,22.366 18.17,22.423 18.107,22.543L16.471,25.683C16.367,25.883 16.082,25.883 15.978,25.683L14.342,22.543C14.279,22.423 14.14,22.366 14.011,22.406L10.634,23.47C10.42,23.537 10.218,23.335 10.285,23.121L11.349,19.744C11.389,19.615 11.332,19.476 11.212,19.413L8.072,17.777C7.872,17.673 7.872,17.388 8.072,17.284L11.212,15.648C11.332,15.585 11.389,15.446 11.349,15.317L10.285,11.94C10.218,11.726 10.42,11.524 10.634,11.591L14.011,12.655C14.14,12.695 14.279,12.638 14.342,12.518L15.978,9.378Z" style="fill:white;fill-rule:nonzero;"/>
</svg>
