<?xml version="1.0" encoding="UTF-8" standalone="no"?>
<!DOCTYPE svg PUBLIC "-//W3C//DTD SVG 1.1//EN" "http://www.w3.org/Graphics/SVG/1.1/DTD/svg11.dtd">
<svg width="100%" height="100%" viewBox="0 0 32 32" version="1.1" xmlns="http://www.w3.org/2000/svg" xmlns:xlink="http://www.w3.org/1999/xlink" xml:space="preserve" xmlns:serif="http://www.serif.com/" style="fill-rule:evenodd;clip-rule:evenodd;stroke-linejoin:round;stroke-miterlimit:2;">
    <g transform="matrix(0.896492,0,0,0.896492,1.65614,1.65613)">
        <path d="M16.749,7.486C18.816,7.486 20.492,5.81 20.492,3.743C20.492,1.676 18.816,0 16.749,0C14.682,0 13.007,1.676 13.007,3.743C13.007,5.81 14.682,7.486 16.749,7.486Z" style="fill:rgb(53,74,89);fill-rule:nonzero;"/>
        <path d="M16.749,32C17.989,32 18.995,30.995 18.995,29.755C18.995,28.514 17.989,27.509 16.749,27.509C15.509,27.509 14.504,28.514 14.504,29.755C14.504,30.995 15.509,32 16.749,32Z" style="fill:rgb(53,74,89);fill-rule:nonzero;"/>
        <path d="M7.553,10.92C9.413,10.92 10.921,9.412 10.921,7.551C10.921,5.691 9.413,4.182 7.553,4.182C5.692,4.182 4.184,5.691 4.184,7.551C4.184,9.412 5.692,10.92 7.553,10.92Z" style="fill:rgb(53,74,89);fill-rule:nonzero;"/>
        <path d="M25.946,27.815C26.98,27.815 27.818,26.977 27.818,25.944C27.818,24.91 26.98,24.072 25.946,24.072C24.913,24.072 24.075,24.91 24.075,25.944C24.075,26.977 24.913,27.815 25.946,27.815Z" style="fill:rgb(53,74,89);fill-rule:nonzero;"/>
        <path d="M3.743,19.743C5.396,19.743 6.736,18.403 6.736,16.749C6.736,15.096 5.396,13.756 3.743,13.756C2.09,13.756 0.749,15.096 0.749,16.749C0.749,18.403 2.09,19.743 3.743,19.743Z" style="fill:rgb(53,74,89);fill-rule:nonzero;"/>
        <path d="M29.755,18.244C30.581,18.244 31.251,17.574 31.251,16.748C31.251,15.922 30.581,15.252 29.755,15.252C28.928,15.252 28.258,15.922 28.258,16.748C28.258,17.574 28.928,18.244 29.755,18.244Z" style="fill:rgb(53,74,89);fill-rule:nonzero;"/>
        <path d="M5.701,24.094C4.677,25.118 4.677,26.774 5.701,27.798C6.723,28.822 8.382,28.822 9.405,27.798C10.428,26.774 10.428,25.118 9.405,24.094C8.382,23.069 6.724,23.059 5.701,24.094Z" style="fill:rgb(53,74,89);fill-rule:nonzero;"/>
        <path d="M25.945,8.673C26.565,8.673 27.067,8.171 27.067,7.551C27.067,6.932 26.565,6.429 25.945,6.429C25.325,6.429 24.823,6.932 24.823,7.551C24.823,8.171 25.325,8.673 25.945,8.673Z" style="fill:rgb(53,74,89);fill-rule:nonzero;"/>
    </g>
</svg>
