<svg width="32" height="32" viewBox="0 0 32 32" fill="none" xmlns="http://www.w3.org/2000/svg">
<path fill-rule="evenodd" clip-rule="evenodd" d="M16 30C23.732 30 30 23.732 30 16C30 8.26801 23.732 2 16 2C8.26801 2 2 8.26801 2 16C2 23.732 8.26801 30 16 30ZM16 32C24.8366 32 32 24.8366 32 16C32 7.16344 24.8366 0 16 0C7.16344 0 0 7.16344 0 16C0 24.8366 7.16344 32 16 32Z" fill="#F37C18"/>
<path d="M13 10.5C13 9.67157 13.6716 9 14.5 9H17.5C18.3284 9 19 9.67157 19 10.5V10.5C19 11.3284 18.3284 12 17.5 12H14.5C13.6716 12 13 11.3284 13 10.5V10.5Z" fill="#354A59"/>
<path d="M10 15.5C10 14.6716 10.6716 14 11.5 14H20.5C21.3284 14 22 14.6716 22 15.5V15.5C22 16.3284 21.3284 17 20.5 17H11.5C10.6716 17 10 16.3284 10 15.5V15.5Z" fill="#354A59"/>
<path d="M7 20.5C7 19.6716 7.67157 19 8.5 19H23.5C24.3284 19 25 19.6716 25 20.5V20.5C25 21.3284 24.3284 22 23.5 22H8.5C7.67157 22 7 21.3284 7 20.5V20.5Z" fill="#354A59"/>
</svg>
