<svg width="32" height="32" viewBox="0 0 32 32" fill="none" xmlns="http://www.w3.org/2000/svg">
<g clip-path="url(#clip0)">
<path d="M31.6839 12.4509C32.1053 12.0296 32.1053 11.3464 31.6839 10.9251L30.0648 9.3059C29.6986 8.93972 29.1237 8.88541 28.6954 9.17643L25.2909 11.4903L27.5908 8.06285C27.878 7.6348 27.8224 7.06327 27.4578 6.69881L23.9455 3.18659C23.6213 2.86234 23.1276 2.7784 22.7146 2.97742L22.1073 3.26981L22.3981 2.62462C22.5824 2.21571 22.4945 1.73552 22.1774 1.41832L21.0749 0.31596C20.6536 -0.10532 19.9705 -0.10532 19.5491 0.31596L10.9854 8.87958L23.1203 21.0145L31.6839 12.4509Z" fill="white"/>
<path d="M9.39088 10.4743L6.91183 12.9533C6.70949 13.1556 6.59578 13.43 6.59578 13.7162C6.59578 14.0023 6.70942 14.2768 6.91183 14.479L9.26343 16.8306C9.7165 17.2837 9.93624 17.9089 9.86632 18.546C9.79648 19.1826 9.44605 19.7455 8.90494 20.0905C1.995 24.4952 1.35089 25.1393 1.13928 25.351C-0.37976 26.87 -0.37976 29.3415 1.13928 30.8606C2.65983 32.3812 5.13155 32.3781 6.64893 30.8606C6.86069 30.6489 7.50501 30.0045 11.9094 23.095C12.2535 22.5552 12.8162 22.2056 13.4531 22.1356C14.0921 22.0659 14.7173 22.2845 15.1693 22.7365L17.5209 25.088C17.9421 25.5093 18.6254 25.5093 19.0467 25.088L21.5258 22.6089L9.39088 10.4743ZM5.03854 29.118C4.44298 29.7135 3.47743 29.7135 2.88194 29.118C2.28638 28.5224 2.28638 27.5569 2.88194 26.9614C3.4775 26.3658 4.44306 26.3658 5.03854 26.9614C5.6341 27.5569 5.6341 28.5224 5.03854 29.118Z" fill="white"/>
</g>
<defs>
<clipPath id="clip0">
<rect width="32" height="32" fill="white"/>
</clipPath>
</defs>
</svg>
