<svg width="32" height="32" viewBox="0 0 32 32" fill="none" xmlns="http://www.w3.org/2000/svg">
<g clip-path="url(#clip0)">
<path fill-rule="evenodd" clip-rule="evenodd" d="M16.0007 0.00149536C15.7722 0.00149536 15.5479 0.0168068 15.3236 0.0321203C15.2369 0.0380406 15.1502 0.0439613 15.0632 0.0489976C6.6135 0.538396 0 7.60373 0 16.0023C0 24.7864 7.00814 31.61 15.0632 31.9644C15.1455 31.9681 15.2275 31.9738 15.3095 31.9794L15.3096 31.9795C15.4467 31.989 15.5838 31.9984 15.7224 31.9984C19.2089 31.9984 22.1754 29.4062 22.5251 26.0909C22.6514 24.9016 22.4592 23.7067 21.9648 22.6338C21.5381 21.7081 21.886 20.8676 22.353 20.3906C22.8199 19.9127 23.6549 19.551 24.5907 19.9566C26.3452 20.7975 27.3913 20.765 28.2587 20.5975C30.4176 20.1718 32.0254 18.1219 31.9997 15.8283C31.9063 7.13589 24.695 0.00149536 16.0007 0.00149536ZM15.0632 28.1903C12.9959 28.1903 11.313 26.5084 11.313 24.4402C11.313 22.3719 12.9959 20.69 15.0632 20.69C17.1306 20.69 18.8134 22.3719 18.8134 24.4402C18.8134 26.5084 17.1306 28.1903 15.0632 28.1903ZM23.5011 13.1896C21.9501 13.1896 20.6885 11.9279 20.6885 10.377C20.6885 8.82604 21.9501 7.56436 23.5011 7.56436C25.052 7.56436 26.3137 8.82604 26.3137 10.377C26.3137 11.9279 25.052 13.1896 23.5011 13.1896ZM5.68778 10.377C5.68778 11.9279 6.94947 13.1896 8.50042 13.1896C10.0514 13.1896 11.3131 11.9279 11.3131 10.377C11.3131 8.82604 10.0514 7.56436 8.50042 7.56436C6.94947 7.56436 5.68778 8.82604 5.68778 10.377ZM7.56293 22.5651C5.49558 22.5651 3.81275 20.8832 3.81275 18.8149C3.81275 16.7466 5.49558 15.0647 7.56293 15.0647C9.63028 15.0647 11.3131 16.7466 11.3131 18.8149C11.3131 20.8832 9.63028 22.5651 7.56293 22.5651ZM15.0632 3.98687C15.3579 3.88181 15.6705 3.81418 16.0008 3.81418C17.5517 3.81418 18.8134 5.07586 18.8134 6.62681C18.8134 8.17775 17.5517 9.43943 16.0008 9.43943C15.6705 9.43943 15.3579 9.37181 15.0632 9.26674C13.9743 8.87841 13.1881 7.84749 13.1881 6.62681C13.1881 5.40613 13.9743 4.3752 15.0632 3.98687Z" fill="#354A59"/>
</g>
<defs>
<clipPath id="clip0">
<rect width="32" height="32" fill="white"/>
</clipPath>
</defs>
</svg>
