<?xml version="1.0" encoding="UTF-8" standalone="no"?>
<!DOCTYPE svg PUBLIC "-//W3C//DTD SVG 1.1//EN" "http://www.w3.org/Graphics/SVG/1.1/DTD/svg11.dtd">
<svg width="100%" height="100%" viewBox="0 0 32 32" version="1.1" xmlns="http://www.w3.org/2000/svg" xmlns:xlink="http://www.w3.org/1999/xlink" xml:space="preserve" xmlns:serif="http://www.serif.com/" style="fill-rule:evenodd;clip-rule:evenodd;stroke-linejoin:round;stroke-miterlimit:2;">
    <g transform="matrix(0.875759,0,0,0.875759,1.98786,1.98785)">
        <path d="M16.001,0.001C15.772,0.001 15.548,0.017 15.324,0.032C15.237,0.038 15.15,0.044 15.063,0.049C6.614,0.538 0,7.604 0,16.002C0,24.786 7.008,31.61 15.063,31.964C15.146,31.968 15.227,31.974 15.31,31.979L15.31,31.98C15.447,31.989 15.584,31.998 15.722,31.998C19.209,31.998 22.175,29.406 22.525,26.091C22.651,24.902 22.459,23.707 21.965,22.634C21.538,21.708 21.886,20.868 22.353,20.391C22.82,19.913 23.655,19.551 24.591,19.957C26.345,20.798 27.391,20.765 28.259,20.598C30.418,20.172 32.025,18.122 32,15.828C31.906,7.136 24.695,0.001 16.001,0.001ZM15.063,28.19C12.996,28.19 11.313,26.508 11.313,24.44C11.313,22.372 12.996,20.69 15.063,20.69C17.131,20.69 18.813,22.372 18.813,24.44C18.813,26.508 17.131,28.19 15.063,28.19ZM23.501,13.19C21.95,13.19 20.689,11.928 20.689,10.377C20.689,8.826 21.95,7.564 23.501,7.564C25.052,7.564 26.314,8.826 26.314,10.377C26.314,11.928 25.052,13.19 23.501,13.19ZM5.688,10.377C5.688,11.928 6.949,13.19 8.5,13.19C10.051,13.19 11.313,11.928 11.313,10.377C11.313,8.826 10.051,7.564 8.5,7.564C6.949,7.564 5.688,8.826 5.688,10.377ZM7.563,22.565C5.496,22.565 3.813,20.883 3.813,18.815C3.813,16.747 5.496,15.065 7.563,15.065C9.63,15.065 11.313,16.747 11.313,18.815C11.313,20.883 9.63,22.565 7.563,22.565ZM15.063,3.987C15.358,3.882 15.671,3.814 16.001,3.814C17.552,3.814 18.813,5.076 18.813,6.627C18.813,8.178 17.552,9.439 16.001,9.439C15.671,9.439 15.358,9.372 15.063,9.267C13.974,8.878 13.188,7.847 13.188,6.627C13.188,5.406 13.974,4.375 15.063,3.987Z" style="fill:white;"/>
    </g>
</svg>
