<svg width="32" height="32" viewBox="0 0 32 32" fill="none" xmlns="http://www.w3.org/2000/svg">
<g clip-path="url(#clip0)">
<path d="M4.24554 4.24666H13.1034C13.9542 4.24666 14.754 4.57797 15.3555 5.1796L27.8829 17.707C28.4845 18.3086 28.8159 19.1084 28.8159 19.9592C28.8159 20.8099 28.4845 21.6097 27.8829 22.2113L19.0252 31.0688C18.4043 31.6897 17.5887 32 16.7731 32C15.9575 32 15.1419 31.6896 14.521 31.0687L1.99355 18.5412C1.39192 17.9395 1.06061 17.1398 1.06061 16.289V7.43153C1.06061 5.67541 2.48936 4.24666 4.24554 4.24666ZM8.49217 14.8632C10.2484 14.8632 11.6771 13.4344 11.6771 11.6782C11.6771 9.92203 10.2484 8.49328 8.49217 8.49328C6.73598 8.49328 5.30723 9.92203 5.30723 11.6782C5.30723 13.4344 6.73598 14.8632 8.49217 14.8632Z" fill="#354A59"/>
<path d="M6.36902 0H15.2269C16.0777 0 16.8775 0.331312 17.479 0.932938L30.0064 13.4604C30.608 14.0619 30.9393 14.8617 30.9393 15.7125C30.9393 16.3779 30.7358 17.0117 30.3596 17.5444C30.1096 17.0562 29.7834 16.6044 29.3844 16.2055L16.8571 3.67806C15.8545 2.6755 14.5215 2.12331 13.1036 2.12331H4.24583C3.93696 2.12331 3.63458 2.15131 3.34002 2.20225C3.75521 0.925625 4.95577 0 6.36902 0Z" fill="#F37C18"/>
</g>
<defs>
<clipPath id="clip0">
<rect width="32" height="32" fill="white" transform="matrix(-1 0 0 1 32 0)"/>
</clipPath>
</defs>
</svg>
