<svg xmlns="http://www.w3.org/2000/svg" viewBox="0 0 1600 1600" fill="#fff"><path d="M248.75 199.75l2.571-.007 8.513.013 6.171-.005 16.946.014 18.278.004 31.664.016 33.205.022h2.086l10.489.002 74.276.037 72.153.041 2.247.001 22.339.008 45.507.017 2.113.001 139.7.084 7.408 18.928 2.514 6.422 17.328 44.462 2.3 5.935 7.45 19.252 1.416 3.662 9.671 25.023 2.145 5.551 7.674 19.93 3.06 7.822 1.67 4.29 1.409 3.566c1.361 4.502 1.678 7.572-.299 11.901l-1.739 2.767-1.887 3.045-1.996 3.131-1.973 3.166-7.152 11.146c-2.688.298-5.146.397-7.836.369l-2.494.01c-2.787.008-5.573-.006-8.36-.019l-6.005.008a4227.89 4227.89 0 0 1-16.603-.02l-18.14-.007c-10.415.001-20.83-.008-31.245-.025l-44.769-.033-107.67-.096-242.88-.187v900h1000v-282l12-44 5.945-22.254 1.482-5.584 3.892-14.684 2.477-9.348 25.328-96.069.808-3.08 6.443-24.553 16.237-61.789 3.789-14.401 20.598-76.239h1l.169 203.7.002 3.045.033 65.517.015 32.129.002 3.23.084 103.64.07 106.5.004 15.041.001 2.99.047 47.66.027 47.91.029 28.467.004 19.021.012 10.834-.007 11.687.032 3.376c-.118 13.83-5.408 25.813-14.712 36.002-13.106 12.224-27.493 13.698-44.501 13.63l-5.754.014a3850.99 3850.99 0 0 1-15.837-.003c-5.74-.007-11.48.004-17.221.012l-30.19.007c-10.797-.007-21.593-.007-32.39.001l-2.067.001-8.336.006-84.606.018-11.689-.002h-2.345c-17.152-.003-34.304 0-51.456.004l-7.043.002-18.878.005-131.79.008h-2.509l-27.701-.005h-2.526l-10.114-.002c-53.329-.01-106.66-.003-159.99.021l-40.315.017-2.507.001-76.5.017h-2.426c-17.573 0-35.146-.001-52.719-.003l-18.863-.002-4.693-.001c-24.928-.003-49.856.006-74.784.02-25.803.014-51.605.014-77.408-.003l-8.313-.005-2.061-.001c-11.421-.007-22.842.002-34.264.016-9.933.01-19.866.006-29.799-.009-5.663-.009-11.326-.011-16.99.004a2407.65 2407.65 0 0 1-15.458-.01 723.02 723.02 0 0 0-5.555.01c-16.718.088-30.218-3.06-42.968-14.703-12.23-13.112-13.698-27.505-13.63-44.519l-.014-5.76.003-15.854-.012-17.239-.007-30.222-.001-32.424-.001-2.07-.006-8.344-.018-84.693.002-11.701v-2.348l-.004-51.508-.002-7.049-.005-18.897-.008-131.92v-2.512l.005-27.728v-2.529l.002-10.124-.021-160.15-.017-40.357-.001-2.51-.017-76.577v-2.428l.003-52.769.002-18.881.001-4.697-.02-74.862.003-77.484.005-8.32.001-2.062-.016-34.302.009-29.826-.004-17.008.01-15.471-.01-5.563c-.086-16.359 3.131-29.401 14.578-41.792 9.751-9.29 21.413-13.648 34.684-13.559zM1337 13c.386 33.07-.204 66.095-1.059 99.152l-.081 3.137-1.031 38.769-1.472 55.362-.331 12.527-2.026 94.052 2.303.9c3.252 1.326 6.319 2.937 9.412 4.592l1.949 1.036 6.273 3.347 4.374 2.329 26.591 14.406c8.285 4.533 16.677 8.854 25.072 13.179l23.678 12.671c7.224 3.963 14.524 7.766 21.848 11.539l27.293 14.531c6.85 3.759 13.765 7.382 20.707 10.969l25.842 13.772 21.655 11.636 29.816 16.217 2.744 1.539c5.652 3.208 11.086 6.657 16.444 10.336-1 2-1 2-3.716 3.08l-3.67 1.174-2.011.649-6.622 2.104-4.652 1.486-44.859 13.739-8.941 2.671-110.92 32.867-28.105 8.293-2.271.671-73.229 22.267-9.379 49.535-1.227 6.98-2.604 14.837-4.132 23.51-.354 2.008-1.784 10.128-1.444 8.198-14.668 82.784-2.532 14.227-11.369 62.298-.889 4.647-1.214 6.271-.681 3.511c-.673 2.846-1.556 5.39-2.725 8.066-3.302-1.101-3.72-1.612-5.644-4.332l-1.529-2.138-1.639-2.343-1.735-2.443-5.452-7.745-3.406-4.836L1223.004 806l-4.055-5.816-21.651-31.296-6.794-9.887-2.75-4-1.375-2-26.125-38-1.375-1.999-2.755-4.007-6.8-9.888-16.479-24.032-13.181-19.207-5.227-7.609-22.584-32.6-4.955-7.205-2.644-3.828-2.234-3.273c-2.218-2.588-2.775-2.874-6.016-3.352-2.402.096-2.402.096-5.01.487l-3.127.414-3.485.486-3.793.511-10.719 1.471-6.965.955-72.509 10.159-6.812.968-43.532 6.207-94.904 13.102-6.771.887-10.604 1.38-5.683.741a412.54 412.54 0 0 1-22.088 2.232l-1-2c5.929-8.877 12.279-17.381 18.777-25.848l13.348-17.84c5.135-7.016 10.405-13.91 15.766-20.755L838.002 557l14.717-19.217 16.661-21.657 8.31-10.876 1.642-2.148L894.002 484l5-6.5 7.395-9.609 18.945-24.719 6.391-8.355 4.788-6.266 7.68-10.008 4.301-5.606 2.033-2.632 3.737-5.012c1.731-2.294 1.731-2.294 3.555-4.145 1.875-2.131 2.683-3.337 3.176-6.149-1.567-5.578-4.26-10.483-7-15.562l-2.102-4.076-3.284-6.349c-3.114-5.963-6.044-12.003-8.931-18.079l-16.053-33.118-8.209-16.722-1.661-3.384-14.949-30.585-4.84-9.93-1.214-2.49-12.168-24.898-13.591-27.807-1.159-2.373-23.591-49.127-1.028-2.183-6.222-13.317-1.338-2.856-1.115-2.426-.927-2.002c-.62-1.717-.62-1.717-.62-4.717 8.148.512 15.586 3.32 23.25 5.938l4.707 1.589 16.043 5.474 2.984 1.022 85.593 29.974 32.235 11.441 9.033 3.197 6.042 2.138 21.406 7.586 58.332 20.578 2.577.902 7.15 2.5 2.095.733 5.553 1.927 3.326 1.165c3.244 1.013 4.508 1.096 7.674-.165 2.56-1.939 4.831-4.132 7.125-6.375l1.998-1.908a596.3 596.3 0 0 0 14.217-14.119c2.071-2.022 4.158-3.908 6.352-5.789 5.022-4.352 9.647-9.077 14.309-13.809 9.486-9.63 9.486-9.63 13.906-13.406 5.499-4.715 10.51-9.941 15.594-15.094 5.662-5.739 11.301-11.417 17.436-16.658 4.556-4.065 8.779-8.495 13.064-12.842 5.488-5.567 10.974-11.056 16.918-16.141 4.561-4.073 8.79-8.506 13.082-12.859 5.539-5.618 11.075-11.165 17.074-16.297 3.646-3.225 7.017-6.732 10.426-10.203 4.734-4.82 9.521-9.459 14.643-13.865 2.75-2.42 5.302-5.013 7.857-7.635 3.891-3.945 7.852-7.7 12.074-11.293 2.237-1.983 4.326-4.079 6.426-6.207 2.899-2.924 5.824-5.796 8.875-8.562l1.898-1.723c1.727-1.215 1.727-1.215 4.727-1.215zM452.06 899.72l3.657-.017 10.041-.019 10.927-.03 21.668-.047 25.955-.059 65.7-.125 17.793-.027 110.45-.134 25.579-.021 3.21-.003 103.08-.191 105.98-.167 14.962-.006 2.975-.001 47.414-.112 47.638-.052 28.308-.067 18.907-.002 10.774-.028c22.392-.279 22.392-.279 27.731 3.752 2.571 2.768 4.357 5.347 6.192 8.633a185.98 185.98 0 0 0 3.938 4.875l1.938 2.465c2.463 3.084 5.004 6.093 7.563 9.098l12.355 14.852 4.695 5.734 2.449 2.977 2.215 2.688c3.662 4.584 4.138 7.527 4.115 13.223l.014 2.469.009 8.221.02 5.884.024 16.012.011 10.009.025 34.938.051 32.529.036 27.944.026 16.681.005 15.712.015 5.747c.101 17.02-2.814 30.686-14.691 43.693-10.988 10.249-23.632 13.718-38.254 13.63l-3.708.014a1801.53 1801.53 0 0 1-10.155-.003c-3.687-.007-7.374.004-11.061.012l-19.375.007c-9.604-.009-19.208-.001-28.812.01l-51.461.017c-15.013-.005-30.026-.004-45.038.002l-6.041.002-9.103.003-84.633.008-3.223-.001-25.909-.008c-33.689-.01-67.378-.002-101.07.021l-113.55.032-12.106-.002-3.011-.001c-15.002-.002-30.003.006-45.005.019-17.06.015-34.12.016-51.18-.002-9.547-.01-19.093-.008-28.64.009-6.379.01-12.757.006-19.136-.009a1649.84 1649.84 0 0 0-10.899.004 1355.89 1355.89 0 0 1-11.756-.016l-3.396.029c-13.852-.128-25.839-5.396-36.047-14.717-9.182-9.844-13.735-22.025-13.638-35.331l-.016-2.737v-8.992l-.021-6.483-.011-17.547-.009-14.672-.001-34.622-.029-35.67-.023-30.673-.016-18.299.007-17.21-.01-6.299c-.094-20.402-.094-20.402 4.517-29.277l1.379-2.689c6.505-12.113 16.957-20.314 30.074-24.382 5.501-1.323 10.977-1.217 16.607-1.206zm-.39-399.96l3.51-.005 9.592.014 10.364.004 17.938.016 25.935.024 42.081.037 40.869.041 2.546.002 12.646.008 104.85.101-2.816 5.208-1.584 2.929c-2.341 4.19-4.946 8.179-7.599 12.175l-3.434 5.234-1.777 2.709-8.852 13.807-1.771 2.788L677 572.001l-20.784 32.801-15.761 24.894-4.341 6.867-18.548 29.538-10.073 16.02-30.867 50.255-1.64 2.773c-2.104 3.576-4.142 7.134-5.985 10.852l148.41-7.145 29.104-1.625 113.71-6.398 19.822-1.123 2.777-.157 10.964-.62 31.639-1.803 19.678-1.121 11.253-.645L982.992 724l3.36-.144 9.214-.258 2.673-.104c4.109-.035 6.833.131 10.112 2.746 2.619 2.746 4.594 5.569 6.641 8.76l4.438 5.375 2.215 2.742 7.848 9.383 12.188 14.688 7.813 9.313 10.438 12.438 2.09 2.527c2.144 2.755 4.049 5.623 5.973 8.535l-179.11.169-2.678.002-57.613.033-28.254.015-2.84.002-91.126.084-93.646.07-13.228.004-2.63.001-41.902.047-42.129.027c-8.343-.003-16.685.005-25.028.029h-18.695c-2.52-.002-5.039.003-7.559.016-18.997.089-33.629-1.275-48.316-14.687-9.182-9.844-13.735-22.025-13.638-35.331l-.016-2.737v-8.992l-.021-6.483-.011-17.547-.009-14.672-.001-34.622-.029-35.67-.023-30.673-.016-18.299.007-17.21-.01-6.299c-.094-20.402-.094-20.402 4.517-29.277l1.379-2.689c6.507-12.116 16.97-20.333 30.098-24.384 5.373-1.292 10.69-1.197 16.19-1.167z"/></svg>